<?xml version="1.0" standalone="no"?>
<!DOCTYPE svg PUBLIC "-//W3C//DTD SVG 20010904//EN"
 "http://www.w3.org/TR/2001/REC-SVG-20010904/DTD/svg10.dtd">
<svg version="1.0" xmlns="http://www.w3.org/2000/svg"
 width="1024.000000pt" height="1024.000000pt" viewBox="0 0 1024.000000 1024.000000"
 preserveAspectRatio="xMidYMid meet">

<g transform="translate(0.000000,1024.000000) scale(0.100000,-0.100000)"
fill="#000000" stroke="none">
<path d="M5713 6335 c-155 -43 -264 -155 -280 -286 -5 -41 -11 -53 -32 -64
-43 -22 -99 -87 -116 -134 -47 -134 20 -296 146 -351 29 -12 76 -24 106 -27
49 -5 57 -9 78 -42 83 -133 313 -165 463 -65 28 18 40 20 65 13 18 -5 62 -9
99 -9 156 0 285 97 317 238 11 50 -3 135 -30 180 -18 31 -18 37 -4 78 44 130
-19 279 -146 349 -44 23 -69 30 -134 33 -44 2 -91 -1 -105 -6 -22 -8 -31 -4
-69 29 -24 22 -67 46 -95 55 -72 23 -199 27 -263 9z m270 -53 c25 -11 64 -35
85 -52 l39 -31 61 12 c202 42 389 -159 316 -341 -16 -41 -16 -42 12 -97 32
-63 37 -131 15 -195 -15 -47 -83 -117 -136 -143 -47 -23 -173 -32 -229 -17
-33 10 -42 8 -75 -13 -79 -53 -195 -71 -289 -46 -53 15 -116 62 -147 111 -24
38 -27 40 -78 40 -95 0 -196 67 -231 152 -23 53 -21 150 3 197 22 41 78 95
110 106 13 4 21 15 21 28 0 11 7 47 17 80 28 101 135 198 250 227 62 15 202 6
256 -18z"/>
<path d="M5864 6091 c-71 -32 -119 -128 -79 -158 35 -25 62 -16 87 30 22 39
26 42 67 42 36 0 47 -5 64 -27 31 -41 11 -78 -63 -117 -55 -29 -59 -34 -65
-75 -11 -68 -4 -91 26 -94 32 -4 59 21 59 54 0 18 11 29 49 48 117 60 147 179
66 261 -56 55 -138 69 -211 36z"/>
<path d="M5878 5649 c-27 -15 -24 -75 3 -90 48 -25 95 30 65 76 -17 26 -40 31
-68 14z"/>
<path d="M5540 5353 c-56 -22 -69 -95 -25 -138 28 -28 63 -32 105 -10 67 35
43 137 -36 149 -16 3 -36 3 -44 -1z m73 -54 c33 -46 -19 -97 -68 -65 -28 19
-32 47 -9 70 22 22 60 20 77 -5z"/>
<path d="M5435 5166 c-3 -9 -7 -22 -9 -30 -3 -7 2 -23 10 -35 33 -46 107 -7
88 47 -8 22 -16 28 -47 30 -27 2 -39 -1 -42 -12z m53 -33 c-4 -22 -22 -20 -26
1 -2 10 3 16 13 16 10 0 15 -7 13 -17z"/>
<path d="M5275 5033 c-60 -8 -116 -20 -122 -25 -8 -6 -13 -33 -13 -63 0 -48 3
-56 32 -79 23 -18 30 -28 22 -36 -12 -12 -140 -33 -486 -79 -124 -17 -232 -33
-240 -36 -7 -3 -60 -72 -117 -153 -58 -81 -121 -169 -141 -197 -45 -61 -302
-428 -382 -545 -69 -101 -74 -135 -29 -181 32 -31 84 -39 135 -19 22 8 26 7
26 -8 0 -10 4 -76 10 -148 10 -138 15 -223 30 -539 13 -262 19 -332 34 -344 6
-5 70 -30 141 -54 72 -25 234 -82 360 -127 254 -91 414 -144 461 -154 50 -11
1043 209 1071 237 11 11 47 280 78 592 8 80 43 386 53 455 7 53 7 54 47 62 22
5 52 13 67 19 55 22 49 41 -103 343 -459 911 -473 936 -512 936 -7 0 -12 14
-12 33 0 32 -1 33 -110 76 -129 51 -154 54 -300 34z m249 -52 c38 -15 62 -30
55 -33 -21 -8 -122 20 -136 38 -6 8 -14 11 -17 6 -8 -14 -143 -25 -163 -13
-16 8 -15 10 7 15 97 22 178 18 254 -13z m-239 -55 c96 -45 105 -55 87 -97 -6
-14 -21 -9 -99 29 -90 43 -93 46 -93 78 0 19 2 34 5 34 3 0 48 -20 100 -44z
m163 14 c7 0 10 -4 7 -10 -7 -11 -55 -13 -81 -3 -16 6 -16 7 2 14 10 5 28 6
39 4 11 -3 26 -5 33 -5z m200 -57 l-3 -38 -90 -16 c-49 -8 -104 -18 -120 -21
-30 -7 -30 -6 -27 32 4 35 7 40 36 45 17 3 65 11 106 19 107 20 102 21 98 -21z
m85 -75 c78 -136 579 -1150 571 -1158 -5 -4 -72 -20 -149 -34 -164 -30 -900
-173 -932 -181 -13 -3 -23 -1 -23 5 0 11 -57 113 -458 825 -96 171 -188 334
-204 363 -22 38 -26 53 -16 56 7 2 153 22 323 45 171 24 318 45 328 47 16 5
17 -6 17 -124 l0 -129 81 -112 c57 -79 86 -111 101 -111 11 0 61 9 110 21 71
17 91 25 98 42 8 20 40 346 40 410 0 19 8 28 30 36 17 5 30 17 30 25 0 30 28
16 53 -26z m-404 -23 l51 -25 96 16 c52 9 98 14 101 10 5 -4 -7 -156 -30 -390
-2 -16 -17 -23 -82 -37 -44 -9 -81 -16 -82 -15 -2 1 2 87 7 191 7 126 7 192 0
199 -22 22 -31 -17 -37 -173 -3 -89 -9 -164 -13 -166 -4 -2 -30 29 -58 70
l-52 73 0 146 0 146 24 -10 c14 -5 48 -21 75 -35z m-820 -187 c66 -120 529
-944 590 -1048 33 -58 61 -108 61 -112 0 -4 -10 -12 -21 -19 -18 -9 -25 -8
-39 7 -10 11 -109 183 -220 384 -339 610 -391 701 -407 707 -8 3 -25 -5 -38
-18 -26 -26 -225 -309 -450 -642 -77 -113 -144 -205 -150 -203 -5 1 -16 14
-24 28 -16 28 -14 32 279 444 74 104 189 267 255 362 66 94 122 171 125 172 3
0 21 -28 39 -62z m-36 -142 c8 -21 -21 -56 -40 -49 -10 4 -14 2 -10 -4 3 -5 0
-10 -8 -10 -10 0 -6 12 13 38 29 42 37 46 45 25z m265 -471 c85 -154 188 -338
229 -408 l74 -128 -11 -212 c-5 -117 -17 -376 -25 -576 -8 -201 -17 -366 -19
-369 -8 -8 -897 300 -922 319 -6 5 -14 62 -17 131 -4 68 -16 306 -29 529 l-22
405 129 190 c71 104 184 269 253 367 l124 179 40 -74 c23 -40 110 -199 196
-353z m-338 385 c-8 -5 -11 -10 -6 -10 5 0 4 -6 -1 -12 -6 -7 -10 -20 -10 -28
0 -9 -25 -53 -57 -97 -40 -58 -61 -80 -72 -76 -8 3 -13 11 -10 18 11 29 150
215 160 215 6 0 4 -5 -4 -10z m-140 -241 c0 -5 -7 -9 -15 -9 -8 0 -12 -6 -9
-14 3 -8 0 -17 -7 -22 -8 -4 -10 -3 -5 4 5 8 2 10 -9 6 -11 -5 -13 -10 -5 -19
8 -10 4 -18 -17 -35 -15 -12 -22 -18 -15 -15 7 4 -7 -24 -31 -62 -71 -110
-128 -188 -137 -188 -4 0 -12 -4 -17 -9 -5 -5 -3 -6 5 -2 19 11 14 -2 -13 -38
-14 -18 -25 -40 -25 -49 0 -14 -55 -35 -65 -25 -2 2 53 87 123 189 195 284
213 308 228 302 8 -3 14 -9 14 -14z m1900 -578 c0 -26 -109 -1001 -115 -1027
-4 -18 -27 -26 -192 -62 -104 -23 -329 -73 -502 -112 -172 -39 -316 -69 -319
-65 -3 3 2 202 11 443 23 595 27 663 40 655 21 -13 103 0 562 92 259 51 480
93 493 94 15 1 22 -5 22 -18z"/>
<path d="M4331 3648 c-5 -13 -19 -33 -32 -45 -27 -25 -106 -62 -131 -63 -10 0
-18 -7 -18 -15 0 -27 62 -18 120 18 73 43 129 127 85 127 -9 0 -19 -10 -24
-22z"/>
<path d="M4605 3610 c-9 -15 23 -74 62 -114 37 -37 107 -76 136 -76 30 0 18
28 -17 40 -58 19 -116 68 -137 116 -20 44 -32 53 -44 34z"/>
<path d="M4210 3480 c-36 -36 -22 -135 20 -140 33 -5 42 1 56 36 17 40 12 78
-13 107 -21 22 -38 22 -63 -3z"/>
<path d="M4681 3404 c-49 -62 -3 -173 56 -136 38 24 37 121 0 147 -29 20 -32
19 -56 -11z"/>
<path d="M4330 3248 c-48 -14 -94 -50 -114 -91 -19 -42 -20 -57 -3 -57 6 0 21
17 32 37 26 48 62 73 113 80 98 13 197 -50 224 -142 14 -51 31 -63 36 -27 5
36 -42 126 -81 156 -37 29 -115 57 -151 55 -12 0 -37 -5 -56 -11z"/>
<path d="M5565 3274 c-148 -24 -279 -48 -291 -53 -24 -10 -27 -43 -40 -417 -6
-173 -6 -182 13 -192 23 -13 572 89 608 112 24 16 24 12 46 367 7 107 10 203
6 212 -9 24 -30 22 -342 -29z m311 -81 c-18 -269 -29 -399 -35 -411 -5 -10
-11 -9 -26 2 -18 13 -18 21 -6 212 17 270 19 282 45 287 11 2 23 5 25 6 2 0 0
-43 -3 -96z m-90 25 c-3 -29 -6 -69 -6 -89 l0 -35 -130 -19 c-72 -10 -131 -16
-133 -14 -1 2 -1 41 1 86 l3 81 67 11 c37 6 90 15 117 20 92 16 89 18 81 -41z
m-306 -97 c0 -55 3 -102 8 -104 6 -4 115 12 260 38 32 6 33 5 30 -22 -3 -27
-4 -28 -145 -53 -78 -14 -146 -29 -150 -34 -4 -4 -10 -51 -13 -104 -5 -97 -5
-97 -32 -100 l-27 -3 -3 98 c-3 110 6 101 -91 88 l-49 -7 4 28 c3 27 8 30 68
42 35 7 68 16 72 20 4 4 11 54 14 110 7 99 8 102 31 102 23 0 23 -2 23 -99z
m-92 -87 c-2 -1 -27 -6 -56 -10 l-53 -7 3 84 3 84 50 11 50 10 3 -84 c2 -47 1
-86 0 -88z m377 -146 c-4 -46 -9 -85 -11 -87 -4 -5 -248 -50 -252 -46 -1 1 0
38 4 82 l7 81 126 25 c69 13 128 25 130 26 1 0 0 -36 -4 -81z m-385 -12 c0
-12 -3 -51 -6 -84 -6 -58 -8 -61 -38 -67 -17 -4 -39 -9 -48 -11 -16 -5 -18 4
-18 80 0 94 -4 88 70 99 14 3 28 5 33 6 4 0 7 -10 7 -23z m419 -125 c11 -7 10
-10 -5 -14 -28 -9 -504 -97 -521 -97 -8 0 -13 7 -11 17 2 13 26 21 103 35 394
72 410 74 434 59z"/>
</g>
</svg>
